# xmcd
#
# Track frame offsets: 
#        150
#        29317
#        52769
#        78527
#        105999
#        129684
#        149452
#        185012
#        224421
#        248180
#        276339
#        310476
#
# Disc length: 4440 seconds
#
# Revision: 2
# Processed by: cddbd v1.5.2PL0 Copyright (c) Steve Scherf et al.
# Submitted via: ExactAudioCopy v0.99pb5
#
DISCID=b211560c
DTITLE=Monty Alexander - Triple Scoop [CD 2)
DYEAR=2002
DGENRE=Jazz
TTITLE0=I'll Remember April
TTITLE1=PolkaDots And Moonbeams
TTITLE2=Lester Leaps In
TTITLE3=I Told You I Love You, Now Get Out
TTITLE4=Secret Love
TTITLE5=In The Wee Small Hours Of The Morning
TTITLE6=High Heel Sneakers
TTITLE7=Renewal
TTITLE8=I Love You
TTITLE9=My One And Only Love
TTITLE10=Corcovado (Quiet Nights)
TTITLE11=There Will Never Be Another You
EXTD=YEAR: 2002
EXTT0=
EXTT1=
EXTT2=
EXTT3=
EXTT4=
EXTT5=
EXTT6=
EXTT7=
EXTT8=
EXTT9=
EXTT10=
EXTT11=
PLAYORDER=
